<?xml version="1.0" encoding="UTF-8"?>
<svg version="1.1" xmlns="http://www.w3.org/2000/svg" width="200" height="200">
<path d="M0 0 C8.38653563 6.12445715 15.14494236 13.54422059 17 24 C17.71767799 32.94337188 17.34719711 40.99061867 13 49 C11.95586118 50.18165954 10.87297599 51.33049049 9.75 52.4375 C7.57371417 54.68957687 7.03127725 55.63678027 6.7578125 58.8125 C6.83591071 60.89511888 6.92835385 62.97724947 7.03515625 65.05859375 C6.96748548 70.72038126 4.53563735 74.46436265 0.625 78.375 C-4.85010211 81.76434893 -10.02026149 82.29528688 -16.34106445 82.2746582 C-17.15653748 82.27976913 -17.9720105 82.28488007 -18.81219482 82.29014587 C-21.49596592 82.3039943 -24.17947876 82.30308839 -26.86328125 82.30078125 C-28.73886713 82.30467139 -30.61445214 82.30900671 -32.49003601 82.31376648 C-36.41810971 82.32121893 -40.34609352 82.32094492 -44.27416992 82.31567383 C-49.29086343 82.30988698 -54.3071868 82.326796 -59.32381916 82.3500185 C-63.19732287 82.36480202 -67.07073844 82.36562116 -70.94426537 82.36250877 C-72.79290689 82.36301988 -74.64155363 82.36821776 -76.49016762 82.37832069 C-79.08393504 82.39075477 -81.67699457 82.38385167 -84.27075195 82.37231445 C-85.02378098 82.37995819 -85.77681 82.38760193 -86.55265808 82.39547729 C-94.37187462 82.31918558 -101.68998062 80.30116351 -107.4921875 74.86328125 C-111.48640669 69.92741971 -113.77864597 63.4403583 -113.37890625 57.0703125 C-112.09842667 50.0738777 -109.60297307 44.5095405 -103.85546875 40.18359375 C-98.52597255 36.78393618 -94.30675475 35.61387216 -88 36 C-88.04640625 35.38253906 -88.0928125 34.76507813 -88.140625 34.12890625 C-88.48019457 26.16114894 -86.36818915 21.00770471 -82.375 14.25 C-77.12042573 9.27198227 -70.4520589 6.38201172 -63.23046875 5.921875 C-57.55097201 6.12080658 -52.16397685 7.66788142 -47 10 C-45.8553125 8.453125 -45.8553125 8.453125 -44.6875 6.875 C-34.02845193 -5.64111372 -14.03369761 -7.96738083 0 0 Z " fill="#F1F1F1" transform="translate(148,62)"/>
<path d="M0 0 C8.38653563 6.12445715 15.14494236 13.54422059 17 24 C17.80200573 33.99422529 17.32192378 43.17882215 11.17578125 51.45703125 C9.51261655 53.38333357 7.81670164 55.21902002 6 57 C4.62437146 55.71034824 3.29233607 54.37310707 2 53 C2 52.34 2 51.68 2 51 C-2.86202522 48.89312241 -7.92161787 47.47914043 -13 46 C-13.02578125 45.41992188 -13.0515625 44.83984375 -13.078125 44.2421875 C-13.55283917 37.70407867 -15.07818717 33.65619348 -20.0625 29.125 C-25.10868299 27.19241928 -31.31906888 26.83184804 -36.33984375 29.01953125 C-37.16162109 29.50486328 -37.16162109 29.50486328 -38 30 C-38.20302734 29.05640625 -38.20302734 29.05640625 -38.41015625 28.09375 C-40.14559907 21.19354622 -42.94345726 16.95956795 -48 12 C-43.66312117 4.41046205 -37.07963215 -0.30911161 -28.8984375 -3.3046875 C-19.21936481 -5.62662138 -8.72220111 -4.95187369 0 0 Z " fill="#EB6E4B" transform="translate(148,62)"/>
</svg>
